<?xml version="1.0" ?><svg id="Layer_5" style="enable-background:new 0 0 62 62;" version="1.1" viewBox="0 0 62 62" xml:space="preserve" xmlns="http://www.w3.org/2000/svg" xmlns:xlink="http://www.w3.org/1999/xlink"><g><g><g><path d="M29,61H5c-2.209,0-4-1.791-4-4V5c0-2.209,1.791-4,4-4h24c2.209,0,4,1.791,4,4v52     C33,59.209,31.209,61,29,61z" style="fill:#969FAA;"/></g><g><path d="M21,54v2c0,0.55-0.45,1-1,1h-6c-0.55,0-1-0.45-1-1v-2c0-0.55,0.45-1,1-1h6     C20.55,53,21,53.45,21,54z" style="fill:#E6E9ED;"/></g><g><path d="M23,1v2c0,1.1-0.9,2-2,2h-8c-1.1,0-2-0.9-2-2V1H23z" style="fill:#4FC1E9;"/></g><g><path d="M28,49H6c-0.552,0-1-0.448-1-1V10c0-0.552,0.448-1,1-1h22c0.552,0,1,0.448,1,1v38     C29,48.552,28.552,49,28,49z" style="fill:#69D6F4;"/></g><g><rect height="10" style="fill:#FCD770;" width="10" x="9" y="13"/></g><g><path d="M59,8.25c0,0.92-0.19,1.83-0.56,2.69l-0.02,0.07c-1.36,3.16-3.07,6.18-5.1,9.01     C53.21,20.01,53.11,20,53,20h-4c0-1.41-0.96-2.59-2.27-2.91c-1.19-1.95-2.25-3.99-3.15-6.08l-0.02-0.07     C43.19,10.08,43,9.17,43,8.25C43,4.24,46.48,1,50.77,1h0.46c2.15,0,4.09,0.81,5.49,2.12C58.13,4.43,59,6.24,59,8.25z" style="fill:#FCD770;"/></g><g><circle cx="51" cy="9" r="4" style="fill:#FF826E;"/></g><g><path d="M46.73,17.09C48.04,17.41,49,18.59,49,20c0,1.66-1.34,3-3,3c-0.77,0-1.47-0.29-2-0.77     c-0.08-0.07-0.16-0.15-0.23-0.23C43.29,21.47,43,20.77,43,20s0.29-1.47,0.77-2c0.54-0.62,1.34-1,2.23-1     C46.25,17,46.5,17.03,46.73,17.09z" style="fill:#CCD1D9;"/></g><g><path d="M43,20c0,0.77,0.29,1.47,0.77,2H38c-0.55,0-1-0.45-1-1v-2c0-0.55,0.45-1,1-1h5.77     C43.29,18.53,43,19.23,43,20z" style="fill:#AAB2BD;"/></g><g><path d="M47,42c0,0.97,0.2,1.89,0.55,2.73L47.07,45H40l-0.67-4H47h0.08C47.02,41.33,47,41.66,47,42z" style="fill:#CCD1D9;"/></g><g><path d="M46,23c1.66,0,3-1.34,3-3h4c0.11,0,0.21,0.01,0.32,0.02c0.7,0.07,1.33,0.39,1.8,0.86     C55.66,21.42,56,22.17,56,23c0,1.66-1.34,3-3,3h-0.61H47h-1c-1.1,0-2-0.9-2-2v-1.77C44.53,22.71,45.23,23,46,23z" style="fill:#FF826E;"/></g><g><path d="M54,35c-3.53,0-6.44,2.6-6.92,6H47V26h5.39c1.64,2.73,2.55,5.86,2.61,9.07v0.01     C54.68,35.02,54.34,35,54,35z" style="fill:#FF826E;"/></g><g><path d="M39.33,41L40,45h-4v-3c0-1.66-1.34-3-3-3H18v-3c0-1.66,1.34-3,3-3h14h0.46     c1.47,0,2.72,1.06,2.96,2.51L39.33,41z" style="fill:#FF826E;"/></g><g><path d="M30,25c0,1.1-0.9,2-2,2s-2-0.9-2-2s0.9-2,2-2c0.36,0,0.71,0.1,1,0.27C29.6,23.62,30,24.26,30,25z" style="fill:#AAB2BD;"/></g><g><path d="M35,33H21c0-3.31,2.69-6,6-6h1h1c1.54,0,2.94,0.58,4,1.53C34.23,29.63,35,31.23,35,33z" style="fill:#CCD1D9;"/></g><g><path d="M36,42v3h-2h-1h-0.67H19.67H17c-1.1,0-2-0.9-2-2v-2c0-1.1,0.9-2,2-2h1h15C34.66,39,36,40.34,36,42     z" style="fill:#CCD1D9;"/></g><g><path d="M50,41h-2.92c0.48-3.4,3.39-6,6.92-6c0.34,0,0.68,0.02,1,0.08c3.07,0.43,5.49,2.85,5.92,5.92H58     H50z" style="fill:#AAB2BD;"/></g><g><path d="M47.08,41H50c0,2.21,1.79,4,4,4s4-1.79,4-4h2.92c0.06,0.32,0.08,0.66,0.08,1c0,3.87-3.13,7-7,7     c-2.9,0-5.39-1.76-6.45-4.27C47.2,43.89,47,42.97,47,42C47,41.66,47.02,41.33,47.08,41z" style="fill:#969FAA;"/></g><g><path d="M32.33,45c-1.13,2.37-3.54,4-6.33,4s-5.2-1.63-6.33-4H32.33z" style="fill:#969FAA;"/></g></g><g><path d="M55.956,34.252c-0.155-2.57-0.823-5.087-1.964-7.392C55.716,26.416,57,24.862,57,23c0-1.521-0.863-2.83-2.116-3.507    c1.74-2.569,3.248-5.287,4.479-8.16C59.786,10.349,60,9.311,60,8.247C60,3.699,56.067,0,51.233,0h-0.466    C45.933,0,42,3.699,42,8.247c0,1.063,0.214,2.102,0.666,3.152c0.69,1.61,1.478,3.198,2.348,4.738    c-0.615,0.157-1.168,0.457-1.632,0.862H38c-1.103,0-2,0.897-2,2v2c0,1.103,0.897,2,2,2h5v1c0,1.654,1.346,3,3,3v13h-5.82    l-0.776-4.657c-0.297-1.78-1.726-3.097-3.478-3.301c-0.209-1.519-0.903-2.885-1.927-3.931V5c0-2.757-2.243-5-5-5H5    C2.243,0,0,2.243,0,5v52c0,2.757,2.243,5,5,5h24c2.757,0,5-2.243,5-5V46h3h10.073v-0.016C48.456,48.38,51.04,50,54,50    c4.411,0,8-3.589,8-8C62,38.265,59.423,35.128,55.956,34.252z M59.65,40h-11.3c0.826-2.327,3.043-4,5.65-4S58.824,37.673,59.65,40    z M56.816,42c-0.414,1.161-1.514,2-2.816,2s-2.402-0.839-2.816-2H56.816z M44,8.247C44,4.803,47.036,2,50.767,2h0.466    C54.964,2,58,4.803,58,8.247c0,0.79-0.16,1.563-0.503,2.365c-1.255,2.927-2.838,5.742-4.693,8.388h-2.946    c-0.326-1.256-1.24-2.269-2.438-2.727c-1.1-1.824-2.087-3.726-2.946-5.729C44.16,9.811,44,9.037,44,8.247z M46,18    c1.103,0,2,0.897,2,2s-0.897,2-2,2s-2-0.897-2-2S44.897,18,46,18z M38,19h4.142C42.058,19.322,42,19.653,42,20    s0.058,0.678,0.142,1H38V19z M45,24v-0.142C45.322,23.942,45.653,24,46,24c1.858,0,3.411-1.279,3.858-3H53c1.103,0,2,0.897,2,2    s-0.897,2-2,2h-7C45.449,25,45,24.552,45,24z M51.805,27c1.202,2.156,1.936,4.546,2.137,7.003    c-2.366,0.017-4.486,1.07-5.941,2.723V27H51.805z M17,36v2c-1.654,0-3,1.346-3,3v2c0,1.654,1.346,3,3,3h2.094    c0.441,0.758,0.988,1.434,1.635,2H6V10h22v12c-1.654,0-3,1.346-3,3c0,0.438,0.099,0.85,0.268,1.226    c-2.747,0.703-4.846,3.03-5.207,5.897C18.309,32.548,17,34.119,17,36z M21.532,46h8.935c-1.124,1.248-2.746,2-4.468,2    S22.656,47.248,21.532,46z M27,25c0-0.552,0.449-1,1-1s1,0.448,1,1s-0.449,1-1,1S27,25.552,27,25z M27,28h2    c2.414,0,4.434,1.721,4.899,4H22.101C22.566,29.721,24.586,28,27,28z M12,2h10v1c0,0.552-0.449,1-1,1h-8c-0.551,0-1-0.448-1-1V2z     M29,60H5c-1.654,0-3-1.346-3-3V5c0-1.654,1.346-3,3-3h5v1c0,1.654,1.346,3,3,3h8c1.654,0,3-1.346,3-3V2h5c1.654,0,3,1.346,3,3    v21.685c-0.403-0.192-0.827-0.347-1.268-0.459C30.901,25.85,31,25.438,31,25c0-0.883-0.391-1.67-1-2.22V10c0-1.103-0.897-2-2-2H6    c-1.103,0-2,0.897-2,2v38c0,1.103,0.897,2,2,2h20c2.318,0,4.501-1.023,6-2.717V57C32,58.654,30.654,60,29,60z M34,44H17    c-0.551,0-1-0.448-1-1v-2c0-0.552,0.449-1,1-1h16c1.103,0,2,0.897,2,2v2H34z M33,38H19v-2c0-1.103,0.897-2,2-2h14.458    c0.982,0,1.812,0.703,1.973,1.671L38.82,44H37v-2C37,39.794,35.206,38,33,38z M40.847,44l-0.333-2H46c0,0.692,0.097,1.359,0.263,2    H40.847z M54,48c-3.309,0-6-2.691-6-6h1.101c0.465,2.279,2.484,4,4.899,4s4.434-1.721,4.899-4H60C60,45.309,57.309,48,54,48z"/><path d="M20,52h-6c-1.103,0-2,0.897-2,2v2c0,1.103,0.897,2,2,2h6c1.103,0,2-0.897,2-2v-2C22,52.897,21.103,52,20,52z M14,56v-2h6    l0.001,2H14z"/><path d="M51,14c2.757,0,5-2.243,5-5s-2.243-5-5-5s-5,2.243-5,5S48.243,14,51,14z M51,6c1.654,0,3,1.346,3,3s-1.346,3-3,3    s-3-1.346-3-3S49.346,6,51,6z"/><rect height="2" width="4" x="8" y="44"/><rect height="2" width="4" x="8" y="40"/><rect height="2" width="6" x="8" y="36"/><rect height="2" width="6" x="8" y="32"/><path d="M8,12v12h12V12H8z M18,22h-8v-8h8V22z"/></g></g></svg>